<?xml version="1.0" encoding="UTF-8" standalone="no"?>
<!DOCTYPE svg PUBLIC "-//W3C//DTD SVG 1.1//EN"
 "http://www.w3.org/Graphics/SVG/1.1/DTD/svg11.dtd">
<!-- Generated by graphviz version 2.43.0 (0)
 -->
<!-- Title: G Pages: 1 -->
<svg width="712pt" height="474pt"
 viewBox="0.00 0.00 712.00 473.79" xmlns="http://www.w3.org/2000/svg" xmlns:xlink="http://www.w3.org/1999/xlink">
<g id="graph0" class="graph" transform="scale(1 1) rotate(0) translate(4 469.79)">
<title>G</title>
<polygon fill="white" stroke="transparent" points="-4,4 -4,-469.79 708,-469.79 708,4 -4,4"/>
<!-- TELEMETRY_BRANCH -->
<g id="node1" class="node">
<title>TELEMETRY_BRANCH</title>
<ellipse fill="none" stroke="black" cx="364.5" cy="-406.4" rx="272.89" ry="59.29"/>
<text text-anchor="middle" x="364.5" y="-433.2" font-family="Times,serif" font-size="14.00">The value of the E2E_TELEMETRY_BRANCH</text>
<text text-anchor="middle" x="364.5" y="-418.2" font-family="Times,serif" font-size="14.00">environment variable can be customized on Github </text>
<text text-anchor="middle" x="364.5" y="-403.2" font-family="Times,serif" font-size="14.00">for Github Actions.</text>
<text text-anchor="middle" x="364.5" y="-372.2" font-family="Times,serif" font-size="14.00">It can</text>
</g>
<!-- master -->
<g id="node3" class="node">
<title>master</title>
<polygon fill="none" stroke="black" points="354.97,-258 233.32,-258 202.03,-222 323.68,-222 354.97,-258"/>
<text text-anchor="middle" x="278.5" y="-236.3" font-family="Times,serif" font-size="14.00">&quot;master&quot;</text>
</g>
<!-- TELEMETRY_BRANCH&#45;&gt;master -->
<g id="edge1" class="edge">
<title>TELEMETRY_BRANCH&#45;&gt;master</title>
<path fill="none" stroke="black" d="M333.94,-346.97C319.7,-319.76 303.48,-288.75 292.28,-267.33"/>
<polygon fill="black" stroke="black" points="295.24,-265.46 287.51,-258.22 289.04,-268.7 295.24,-265.46"/>
<text text-anchor="middle" x="357" y="-298.8" font-family="Times,serif" font-size="14.00">either be</text>
</g>
<!-- release -->
<g id="node4" class="node">
<title>release</title>
<polygon fill="none" stroke="black" points="550.78,-258 426.25,-258 394.22,-222 518.75,-222 550.78,-258"/>
<text text-anchor="middle" x="472.5" y="-236.3" font-family="Times,serif" font-size="14.00">&quot;release&quot;</text>
</g>
<!-- TELEMETRY_BRANCH&#45;&gt;release -->
<g id="edge2" class="edge">
<title>TELEMETRY_BRANCH&#45;&gt;release</title>
<path fill="none" stroke="black" d="M385.53,-346.9C395.69,-323.39 409.43,-296.95 426.5,-276 429.74,-272.02 433.53,-268.23 437.51,-264.71"/>
<polygon fill="black" stroke="black" points="439.8,-267.36 445.32,-258.32 435.36,-261.95 439.8,-267.36"/>
<text text-anchor="middle" x="434.5" y="-298.8" font-family="Times,serif" font-size="14.00">or</text>
</g>
<!-- node1 -->
<g id="node2" class="node">
<title>node1</title>
<polygon fill="lightyellow" stroke="black" points="704,-329 451,-329 451,-276 704,-276 704,-329"/>
<text text-anchor="middle" x="577.5" y="-313.8" font-family="Times,serif" font-size="14.00">This value defines which</text>
<text text-anchor="middle" x="577.5" y="-298.8" font-family="Times,serif" font-size="14.00">version of Telemetry will be</text>
<text text-anchor="middle" x="577.5" y="-283.8" font-family="Times,serif" font-size="14.00">used for testing Telemetry Stats.</text>
</g>
<!-- build -->
<g id="node6" class="node">
<title>build</title>
<polygon fill="none" stroke="black" points="297,-185 0,-185 0,-87 297,-87 297,-185"/>
<text text-anchor="middle" x="148.5" y="-169.8" font-family="Times,serif" font-size="14.00">Compile application and build</text>
<text text-anchor="middle" x="148.5" y="-154.8" font-family="Times,serif" font-size="14.00">container image from &quot;master&quot; branch.</text>
<text text-anchor="middle" x="148.5" y="-139.8" font-family="Times,serif" font-size="14.00">&quot;imagePullPolicy&quot; is set to &quot;Never&quot;.</text>
<text text-anchor="middle" x="148.5" y="-124.8" font-family="Times,serif" font-size="14.00">The container</text>
<text text-anchor="middle" x="148.5" y="-109.8" font-family="Times,serif" font-size="14.00">imagerancherlabs/telemetry&#45;stats:dev</text>
<text text-anchor="middle" x="148.5" y="-94.8" font-family="Times,serif" font-size="14.00">is used.</text>
</g>
<!-- master&#45;&gt;build -->
<g id="edge4" class="edge">
<title>master&#45;&gt;build</title>
<path fill="none" stroke="black" d="M256.74,-221.93C245.82,-213.36 231.93,-202.46 217.76,-191.35"/>
<polygon fill="black" stroke="black" points="219.91,-188.58 209.88,-185.16 215.59,-194.09 219.91,-188.58"/>
</g>
<!-- container_image -->
<g id="node5" class="node">
<title>container_image</title>
<polygon fill="none" stroke="black" points="674,-154 315,-154 315,-118 674,-118 674,-154"/>
<text text-anchor="middle" x="494.5" y="-132.3" font-family="Times,serif" font-size="14.00">Uses a released and published container image.</text>
</g>
<!-- release&#45;&gt;container_image -->
<g id="edge3" class="edge">
<title>release&#45;&gt;container_image</title>
<path fill="none" stroke="black" d="M476.23,-221.7C479.65,-205.85 484.76,-182.14 488.71,-163.84"/>
<polygon fill="black" stroke="black" points="492.14,-164.56 490.82,-154.05 485.29,-163.08 492.14,-164.56"/>
</g>
<!-- telemetry_instance -->
<g id="node7" class="node">
<title>telemetry_instance</title>
<polygon fill="none" stroke="black" points="472,-36 169,-36 169,0 472,0 472,-36"/>
<text text-anchor="middle" x="320.5" y="-14.3" font-family="Times,serif" font-size="14.00">Runs the compiled version of Telemetry.</text>
</g>
<!-- build&#45;&gt;telemetry_instance -->
<g id="edge5" class="edge">
<title>build&#45;&gt;telemetry_instance</title>
<path fill="none" stroke="black" d="M219.95,-86.81C243.16,-71.16 267.83,-54.52 286.92,-41.65"/>
<polygon fill="black" stroke="black" points="288.94,-44.5 295.28,-36.01 285.03,-38.7 288.94,-44.5"/>
<text text-anchor="middle" x="331.5" y="-57.8" font-family="Times,serif" font-size="14.00">is uploaded to k3d</text>
</g>
<!-- telemetry_instance&#45;&gt;container_image -->
<g id="edge6" class="edge">
<title>telemetry_instance&#45;&gt;container_image</title>
<path fill="none" stroke="black" d="M366.74,-36.06C378.45,-41.16 390.74,-47.22 401.5,-54 427.18,-70.18 452.93,-93.27 470.81,-110.67"/>
<polygon fill="black" stroke="black" points="468.39,-113.2 477.96,-117.74 473.31,-108.22 468.39,-113.2"/>
<text text-anchor="middle" x="520" y="-57.8" font-family="Times,serif" font-size="14.00">downloads released version</text>
</g>
</g>
</svg>
